<svg width="179" height="130" viewBox="0 0 179 130" fill="none" xmlns="http://www.w3.org/2000/svg">
<path d="M57.9546 21.106L66.8971 18.507C72.8588 16.7744 76.9567 15.8328 79.191 15.6825C81.4454 15.5263 83.5089 16.2066 85.3816 17.7234C87.2685 19.2143 88.8138 22.0304 90.0173 26.1715C91.1162 29.9526 91.3845 32.6299 90.8222 34.2036C90.2598 35.7772 88.6361 37.0952 85.9509 38.1577C88.6318 38.0511 90.5536 38.3929 91.7162 39.1832C92.8788 39.9734 93.688 40.7796 94.1439 41.6017C94.6139 42.398 95.4188 44.7567 96.5584 48.6778L100.282 61.4913L88.5492 64.9014L83.8571 48.7569C83.1012 46.1562 82.4231 44.6068 81.8227 44.1087C81.2424 43.6049 80.082 43.6058 78.3415 44.1117L84.7081 66.0178L72.0746 69.6895L57.9546 21.106ZM73.004 25.7466L76.1437 36.5496C77.5641 36.1368 78.4991 35.6589 78.9488 35.116C79.4127 34.5473 79.3335 33.1926 78.7114 31.052L77.9352 28.3813C77.4875 26.8409 76.9138 25.912 76.2141 25.5946C75.5344 25.2715 74.4644 25.3221 73.004 25.7466Z" fill="#FBBB07"/>
<path d="M29.6334 94V75.8182H37.144C38.5053 75.8182 39.6801 76.0638 40.6685 76.555C41.6629 77.0404 42.4293 77.7388 42.9679 78.6502C43.5065 79.5558 43.7758 80.63 43.7758 81.8729C43.7758 83.1335 43.5006 84.2048 42.9502 85.0866C42.3997 85.9626 41.6185 86.6314 40.6064 87.093C39.5943 87.5488 38.3958 87.7766 37.0109 87.7766H32.2612V84.3143H36.1941C36.857 84.3143 37.4104 84.2285 37.8543 84.0568C38.3041 83.8793 38.6444 83.6129 38.8752 83.2578C39.106 82.8968 39.2215 82.4351 39.2215 81.8729C39.2215 81.3106 39.106 80.846 38.8752 80.479C38.6444 80.1062 38.3041 79.828 37.8543 79.6445C37.4045 79.4551 36.8511 79.3604 36.1941 79.3604H34.0279V94H29.6334ZM39.8695 85.6903L44.3972 94H39.6032L35.1643 85.6903H39.8695ZM52.283 94.2575C50.8507 94.2575 49.6196 93.9645 48.5898 93.3786C47.5659 92.7867 46.7758 91.964 46.2194 90.9105C45.669 89.8511 45.3938 88.623 45.3938 87.2262C45.3938 85.8235 45.669 84.5954 46.2194 83.5419C46.7758 82.4825 47.5659 81.6598 48.5898 81.0739C49.6196 80.482 50.8507 80.1861 52.283 80.1861C53.7153 80.1861 54.9434 80.482 55.9673 81.0739C56.9971 81.6598 57.7872 82.4825 58.3377 83.5419C58.894 84.5954 59.1722 85.8235 59.1722 87.2262C59.1722 88.623 58.894 89.8511 58.3377 90.9105C57.7872 91.964 56.9971 92.7867 55.9673 93.3786C54.9434 93.9645 53.7153 94.2575 52.283 94.2575ZM52.3096 90.9815C52.8304 90.9815 53.2714 90.8217 53.6324 90.5021C53.9934 90.1825 54.2687 89.7386 54.4581 89.1705C54.6534 88.6023 54.751 87.9453 54.751 87.1996C54.751 86.442 54.6534 85.7791 54.4581 85.2109C54.2687 84.6428 53.9934 84.1989 53.6324 83.8793C53.2714 83.5597 52.8304 83.3999 52.3096 83.3999C51.771 83.3999 51.3153 83.5597 50.9424 83.8793C50.5755 84.1989 50.2943 84.6428 50.099 85.2109C49.9096 85.7791 49.8149 86.442 49.8149 87.1996C49.8149 87.9453 49.9096 88.6023 50.099 89.1705C50.2943 89.7386 50.5755 90.1825 50.9424 90.5021C51.3153 90.8217 51.771 90.9815 52.3096 90.9815ZM61.3961 94V75.8182H65.7373V82.6985H65.8261C66.0037 82.2842 66.2552 81.8847 66.5807 81.5C66.9122 81.1153 67.3324 80.8016 67.8414 80.5589C68.3563 80.3104 68.9718 80.1861 69.688 80.1861C70.635 80.1861 71.5198 80.4347 72.3425 80.9318C73.1711 81.429 73.8399 82.1954 74.3489 83.2312C74.8579 84.2669 75.1123 85.5868 75.1123 87.1907C75.1123 88.7354 74.8667 90.0286 74.3755 91.0703C73.8902 92.112 73.2332 92.8932 72.4046 93.4141C71.5819 93.9349 70.6675 94.1953 69.6614 94.1953C68.9748 94.1953 68.38 94.0829 67.8769 93.858C67.3738 93.633 66.9507 93.3371 66.6074 92.9702C66.27 92.6032 66.0096 92.2096 65.8261 91.7894H65.693V94H61.3961ZM65.6486 87.1818C65.6486 87.9157 65.7462 88.5549 65.9415 89.0994C66.1428 89.6439 66.4298 90.0671 66.8027 90.369C67.1815 90.6649 67.6342 90.8129 68.161 90.8129C68.6937 90.8129 69.1464 90.6649 69.5193 90.369C69.8922 90.0671 70.1733 89.6439 70.3627 89.0994C70.558 88.5549 70.6557 87.9157 70.6557 87.1818C70.6557 86.4479 70.558 85.8117 70.3627 85.2731C70.1733 84.7345 69.8922 84.3172 69.5193 84.0213C69.1524 83.7254 68.6996 83.5774 68.161 83.5774C67.6283 83.5774 67.1756 83.7224 66.8027 84.0124C66.4298 84.3024 66.1428 84.7167 65.9415 85.2553C65.7462 85.7939 65.6486 86.4361 65.6486 87.1818ZM83.7527 94.2575C82.3204 94.2575 81.0894 93.9645 80.0595 93.3786C79.0356 92.7867 78.2455 91.964 77.6891 90.9105C77.1387 89.8511 76.8635 88.623 76.8635 87.2262C76.8635 85.8235 77.1387 84.5954 77.6891 83.5419C78.2455 82.4825 79.0356 81.6598 80.0595 81.0739C81.0894 80.482 82.3204 80.1861 83.7527 80.1861C85.185 80.1861 86.4131 80.482 87.437 81.0739C88.4668 81.6598 89.257 82.4825 89.8074 83.5419C90.3637 84.5954 90.6419 85.8235 90.6419 87.2262C90.6419 88.623 90.3637 89.8511 89.8074 90.9105C89.257 91.964 88.4668 92.7867 87.437 93.3786C86.4131 93.9645 85.185 94.2575 83.7527 94.2575ZM83.7793 90.9815C84.3002 90.9815 84.7411 90.8217 85.1021 90.5021C85.4632 90.1825 85.7384 89.7386 85.9278 89.1705C86.1231 88.6023 86.2207 87.9453 86.2207 87.1996C86.2207 86.442 86.1231 85.7791 85.9278 85.2109C85.7384 84.6428 85.4632 84.1989 85.1021 83.8793C84.7411 83.5597 84.3002 83.3999 83.7793 83.3999C83.2408 83.3999 82.785 83.5597 82.4122 83.8793C82.0452 84.1989 81.7641 84.6428 81.5688 85.2109C81.3794 85.7791 81.2847 86.442 81.2847 87.1996C81.2847 87.9453 81.3794 88.6023 81.5688 89.1705C81.7641 89.7386 82.0452 90.1825 82.4122 90.5021C82.785 90.8217 83.2408 90.9815 83.7793 90.9815ZM92.8658 94V75.8182H97.2603V90.4311H104.824V94H92.8658ZM110.943 94.2308C110.073 94.2308 109.301 94.0858 108.626 93.7958C107.957 93.4999 107.428 93.056 107.037 92.4641C106.652 91.8664 106.46 91.1177 106.46 90.218C106.46 89.4605 106.593 88.8213 106.86 88.3004C107.126 87.7796 107.493 87.3564 107.96 87.0309C108.428 86.7054 108.967 86.4598 109.576 86.294C110.186 86.1224 110.837 86.007 111.529 85.9478C112.305 85.8768 112.929 85.8028 113.402 85.7259C113.876 85.643 114.219 85.5276 114.432 85.3796C114.651 85.2257 114.761 85.0097 114.761 84.7315V84.6871C114.761 84.2314 114.604 83.8793 114.29 83.6307C113.977 83.3821 113.553 83.2578 113.021 83.2578C112.447 83.2578 111.985 83.3821 111.636 83.6307C111.287 83.8793 111.065 84.2225 110.97 84.6605L106.966 84.5185C107.084 83.6899 107.389 82.95 107.88 82.299C108.378 81.642 109.058 81.1271 109.922 80.7543C110.792 80.3755 111.837 80.1861 113.056 80.1861C113.926 80.1861 114.728 80.2897 115.462 80.4968C116.196 80.698 116.835 80.994 117.38 81.3846C117.924 81.7693 118.344 82.2428 118.64 82.805C118.942 83.3673 119.093 84.0095 119.093 84.7315V94H115.009V92.1001H114.903C114.66 92.5618 114.349 92.9524 113.971 93.272C113.598 93.5916 113.157 93.8313 112.648 93.9911C112.145 94.1509 111.577 94.2308 110.943 94.2308ZM112.284 91.3899C112.751 91.3899 113.172 91.2952 113.545 91.1058C113.923 90.9164 114.225 90.656 114.45 90.3246C114.675 89.9872 114.787 89.5966 114.787 89.1527V87.8565C114.663 87.9216 114.512 87.9808 114.335 88.0341C114.163 88.0874 113.974 88.1377 113.766 88.185C113.559 88.2324 113.346 88.2738 113.127 88.3093C112.908 88.3448 112.698 88.3774 112.497 88.407C112.089 88.4721 111.739 88.5727 111.449 88.7088C111.165 88.8449 110.946 89.0225 110.792 89.2415C110.644 89.4545 110.57 89.709 110.57 90.005C110.57 90.4548 110.73 90.7981 111.05 91.0348C111.375 91.2715 111.787 91.3899 112.284 91.3899ZM121.748 94V75.8182H126.089V82.6985H126.178C126.355 82.2842 126.607 81.8847 126.932 81.5C127.264 81.1153 127.684 80.8016 128.193 80.5589C128.708 80.3104 129.323 80.1861 130.04 80.1861C130.987 80.1861 131.871 80.4347 132.694 80.9318C133.523 81.429 134.191 82.1954 134.7 83.2312C135.209 84.2669 135.464 85.5868 135.464 87.1907C135.464 88.7354 135.218 90.0286 134.727 91.0703C134.242 92.112 133.585 92.8932 132.756 93.4141C131.933 93.9349 131.019 94.1953 130.013 94.1953C129.326 94.1953 128.732 94.0829 128.228 93.858C127.725 93.633 127.302 93.3371 126.959 92.9702C126.622 92.6032 126.361 92.2096 126.178 91.7894H126.045V94H121.748ZM126 87.1818C126 87.9157 126.098 88.5549 126.293 89.0994C126.494 89.6439 126.781 90.0671 127.154 90.369C127.533 90.6649 127.986 90.8129 128.513 90.8129C129.045 90.8129 129.498 90.6649 129.871 90.369C130.244 90.0671 130.525 89.6439 130.714 89.0994C130.91 88.5549 131.007 87.9157 131.007 87.1818C131.007 86.4479 130.91 85.8117 130.714 85.2731C130.525 84.7345 130.244 84.3172 129.871 84.0213C129.504 83.7254 129.051 83.5774 128.513 83.5774C127.98 83.5774 127.527 83.7224 127.154 84.0124C126.781 84.3024 126.494 84.7167 126.293 85.2553C126.098 85.7939 126 86.4361 126 87.1818ZM149.644 84.5273L145.658 84.6339C145.616 84.3498 145.504 84.0982 145.321 83.8793C145.137 83.6544 144.897 83.4798 144.601 83.3555C144.311 83.2253 143.974 83.1602 143.589 83.1602C143.086 83.1602 142.657 83.2608 142.302 83.462C141.953 83.6632 141.781 83.9355 141.787 84.2788C141.781 84.5451 141.888 84.7759 142.107 84.9712C142.332 85.1665 142.731 85.3234 143.305 85.4418L145.933 85.9389C147.294 86.1993 148.306 86.6314 148.969 87.2351C149.638 87.8388 149.975 88.6378 149.981 89.6321C149.975 90.5672 149.697 91.381 149.147 92.0735C148.602 92.766 147.857 93.3046 146.91 93.6893C145.963 94.0681 144.88 94.2575 143.66 94.2575C141.713 94.2575 140.177 93.858 139.053 93.0589C137.934 92.254 137.295 91.1768 137.135 89.8274L141.423 89.7209C141.518 90.218 141.763 90.5968 142.16 90.8572C142.557 91.1177 143.063 91.2479 143.678 91.2479C144.234 91.2479 144.687 91.1443 145.036 90.9371C145.386 90.73 145.563 90.4548 145.569 90.1115C145.563 89.8037 145.427 89.5581 145.161 89.3746C144.894 89.1853 144.477 89.0373 143.909 88.9308L141.53 88.478C140.163 88.2294 139.145 87.7707 138.476 87.1019C137.807 86.4272 137.475 85.569 137.481 84.5273C137.475 83.6159 137.718 82.8376 138.209 82.1925C138.701 81.5414 139.399 81.0443 140.305 80.701C141.21 80.3577 142.278 80.1861 143.509 80.1861C145.356 80.1861 146.812 80.5737 147.877 81.3491C148.943 82.1185 149.532 83.1779 149.644 84.5273Z" fill="#FBBB07"/>
<path d="M1.31179 115V103.364H3.41974V113.233H8.54474V115H1.31179ZM14.147 115.17C13.272 115.17 12.5163 114.989 11.88 114.625C11.2474 114.258 10.7607 113.739 10.4197 113.068C10.0788 112.394 9.90838 111.6 9.90838 110.688C9.90838 109.79 10.0788 109.002 10.4197 108.324C10.7644 107.642 11.2455 107.112 11.8629 106.733C12.4804 106.35 13.2057 106.159 14.0391 106.159C14.5769 106.159 15.0845 106.246 15.5618 106.42C16.0429 106.591 16.4671 106.856 16.8345 107.216C17.2057 107.576 17.4974 108.034 17.7095 108.591C17.9216 109.144 18.0277 109.803 18.0277 110.568V111.199H10.8743V109.812H16.0561C16.0523 109.419 15.9671 109.068 15.8004 108.761C15.6338 108.451 15.4008 108.206 15.1016 108.028C14.8061 107.85 14.4614 107.761 14.0675 107.761C13.647 107.761 13.2777 107.864 12.9595 108.068C12.6413 108.269 12.3932 108.534 12.2152 108.864C12.041 109.189 11.9519 109.547 11.9482 109.938V111.148C11.9482 111.655 12.041 112.091 12.2266 112.455C12.4122 112.814 12.6716 113.091 13.005 113.284C13.3383 113.473 13.7285 113.568 14.1754 113.568C14.4747 113.568 14.7455 113.527 14.9879 113.443C15.2304 113.356 15.4406 113.229 15.6186 113.062C15.7966 112.896 15.9311 112.689 16.022 112.443L17.9425 112.659C17.8213 113.167 17.5902 113.61 17.2493 113.989C16.9122 114.364 16.4804 114.655 15.9538 114.864C15.4273 115.068 14.825 115.17 14.147 115.17ZM22.2791 115.176C21.7261 115.176 21.228 115.078 20.7848 114.881C20.3454 114.68 19.9969 114.384 19.7393 113.994C19.4856 113.604 19.3587 113.123 19.3587 112.551C19.3587 112.059 19.4496 111.652 19.6314 111.33C19.8132 111.008 20.0613 110.75 20.3757 110.557C20.6901 110.364 21.0443 110.218 21.4382 110.119C21.8359 110.017 22.2469 109.943 22.6712 109.898C23.1825 109.845 23.5973 109.797 23.9155 109.756C24.2337 109.71 24.4647 109.642 24.6087 109.551C24.7564 109.456 24.8303 109.311 24.8303 109.114V109.08C24.8303 108.652 24.7034 108.32 24.4496 108.085C24.1958 107.85 23.8303 107.733 23.353 107.733C22.8492 107.733 22.4496 107.843 22.1541 108.062C21.8625 108.282 21.6655 108.542 21.5632 108.841L19.6428 108.568C19.7943 108.038 20.0443 107.595 20.3928 107.239C20.7412 106.879 21.1674 106.61 21.6712 106.432C22.175 106.25 22.7318 106.159 23.3416 106.159C23.7621 106.159 24.1806 106.208 24.5973 106.307C25.014 106.405 25.3946 106.568 25.7393 106.795C26.084 107.019 26.3606 107.324 26.5689 107.71C26.781 108.097 26.8871 108.58 26.8871 109.159V115H24.9098V113.801H24.8416C24.7166 114.044 24.5405 114.271 24.3132 114.483C24.0897 114.691 23.8075 114.86 23.4666 114.989C23.1295 115.114 22.7337 115.176 22.2791 115.176ZM22.8132 113.665C23.2261 113.665 23.584 113.583 23.8871 113.42C24.1901 113.254 24.4231 113.034 24.5859 112.761C24.7526 112.489 24.8359 112.191 24.8359 111.869V110.841C24.7715 110.894 24.6617 110.943 24.5064 110.989C24.3549 111.034 24.1844 111.074 23.995 111.108C23.8056 111.142 23.6181 111.172 23.4325 111.199C23.2469 111.225 23.0859 111.248 22.9496 111.267C22.6428 111.309 22.3681 111.377 22.1257 111.472C21.8833 111.566 21.692 111.699 21.5518 111.869C21.4117 112.036 21.3416 112.252 21.3416 112.517C21.3416 112.896 21.4799 113.182 21.7564 113.375C22.0329 113.568 22.3852 113.665 22.8132 113.665ZM28.9553 115V106.273H30.9496V107.727H31.0405C31.1996 107.223 31.4723 106.835 31.8587 106.562C32.2488 106.286 32.6939 106.148 33.1939 106.148C33.3075 106.148 33.4344 106.153 33.5746 106.165C33.7185 106.172 33.8378 106.186 33.9325 106.205V108.097C33.8454 108.066 33.7071 108.04 33.5178 108.017C33.3321 107.991 33.1522 107.977 32.978 107.977C32.603 107.977 32.2659 108.059 31.9666 108.222C31.6712 108.381 31.4382 108.602 31.2678 108.886C31.0973 109.17 31.0121 109.498 31.0121 109.869V115H28.9553ZM37.3558 109.886V115H35.299V106.273H37.2649V107.756H37.3672C37.5679 107.267 37.888 106.879 38.3274 106.591C38.7706 106.303 39.3179 106.159 39.9695 106.159C40.5717 106.159 41.0964 106.288 41.5433 106.545C41.9941 106.803 42.3426 107.176 42.5888 107.665C42.8388 108.153 42.9619 108.746 42.9581 109.443V115H40.9013V109.761C40.9013 109.178 40.7498 108.722 40.4467 108.392C40.1475 108.062 39.7327 107.898 39.2024 107.898C38.8426 107.898 38.5225 107.977 38.2422 108.136C37.9657 108.292 37.7479 108.517 37.5888 108.812C37.4335 109.108 37.3558 109.466 37.3558 109.886ZM63.0376 107.29H60.9126C60.852 106.941 60.7403 106.633 60.5774 106.364C60.4145 106.091 60.2119 105.86 59.9695 105.67C59.727 105.481 59.4505 105.339 59.1399 105.244C58.8331 105.146 58.5017 105.097 58.1456 105.097C57.513 105.097 56.9524 105.256 56.4638 105.574C55.9751 105.888 55.5926 106.35 55.3161 106.96C55.0395 107.566 54.9013 108.307 54.9013 109.182C54.9013 110.072 55.0395 110.822 55.3161 111.432C55.5964 112.038 55.9789 112.496 56.4638 112.807C56.9524 113.114 57.5111 113.267 58.1399 113.267C58.4884 113.267 58.8142 113.222 59.1172 113.131C59.424 113.036 59.6986 112.898 59.9411 112.716C60.1873 112.534 60.3937 112.311 60.5604 112.045C60.7308 111.78 60.8482 111.477 60.9126 111.136L63.0376 111.148C62.9581 111.701 62.7857 112.22 62.5206 112.705C62.2592 113.189 61.9164 113.617 61.4922 113.989C61.0679 114.356 60.5717 114.644 60.0036 114.852C59.4354 115.057 58.8047 115.159 58.1115 115.159C57.0888 115.159 56.1759 114.922 55.3729 114.449C54.5698 113.975 53.9373 113.292 53.4751 112.398C53.013 111.504 52.782 110.432 52.782 109.182C52.782 107.928 53.0149 106.856 53.4808 105.966C53.9467 105.072 54.5812 104.388 55.3842 103.915C56.1873 103.441 57.0964 103.205 58.1115 103.205C58.7592 103.205 59.3615 103.295 59.9183 103.477C60.4751 103.659 60.9714 103.926 61.407 104.278C61.8426 104.627 62.2005 105.055 62.4808 105.562C62.7649 106.066 62.9505 106.642 63.0376 107.29ZM64.8771 115V106.273H66.8714V107.727H66.9624C67.1214 107.223 67.3942 106.835 67.7805 106.562C68.1707 106.286 68.6158 106.148 69.1158 106.148C69.2294 106.148 69.3563 106.153 69.4964 106.165C69.6404 106.172 69.7597 106.186 69.8544 106.205V108.097C69.7673 108.066 69.629 108.04 69.4396 108.017C69.254 107.991 69.0741 107.977 68.8999 107.977C68.5249 107.977 68.1877 108.059 67.8885 108.222C67.593 108.381 67.3601 108.602 67.1896 108.886C67.0192 109.17 66.9339 109.498 66.9339 109.869V115H64.8771ZM74.7251 115.17C73.8501 115.17 73.0945 114.989 72.4581 114.625C71.8255 114.258 71.3388 113.739 70.9979 113.068C70.657 112.394 70.4865 111.6 70.4865 110.688C70.4865 109.79 70.657 109.002 70.9979 108.324C71.3426 107.642 71.8236 107.112 72.4411 106.733C73.0585 106.35 73.7839 106.159 74.6172 106.159C75.1551 106.159 75.6626 106.246 76.1399 106.42C76.621 106.591 77.0452 106.856 77.4126 107.216C77.7839 107.576 78.0755 108.034 78.2876 108.591C78.4998 109.144 78.6058 109.803 78.6058 110.568V111.199H71.4524V109.812H76.6342C76.6304 109.419 76.5452 109.068 76.3786 108.761C76.2119 108.451 75.9789 108.206 75.6797 108.028C75.3842 107.85 75.0395 107.761 74.6456 107.761C74.2251 107.761 73.8558 107.864 73.5376 108.068C73.2195 108.269 72.9714 108.534 72.7933 108.864C72.6191 109.189 72.5301 109.547 72.5263 109.938V111.148C72.5263 111.655 72.6191 112.091 72.8047 112.455C72.9903 112.814 73.2498 113.091 73.5831 113.284C73.9164 113.473 74.3066 113.568 74.7536 113.568C75.0528 113.568 75.3236 113.527 75.5661 113.443C75.8085 113.356 76.0187 113.229 76.1967 113.062C76.3748 112.896 76.5092 112.689 76.6001 112.443L78.5206 112.659C78.3994 113.167 78.1683 113.61 77.8274 113.989C77.4903 114.364 77.0585 114.655 76.532 114.864C76.0054 115.068 75.4032 115.17 74.7251 115.17ZM82.8572 115.176C82.3042 115.176 81.8061 115.078 81.3629 114.881C80.9235 114.68 80.575 114.384 80.3175 113.994C80.0637 113.604 79.9368 113.123 79.9368 112.551C79.9368 112.059 80.0277 111.652 80.2095 111.33C80.3913 111.008 80.6394 110.75 80.9538 110.557C81.2682 110.364 81.6224 110.218 82.0163 110.119C82.4141 110.017 82.825 109.943 83.2493 109.898C83.7607 109.845 84.1754 109.797 84.4936 109.756C84.8118 109.71 85.0429 109.642 85.1868 109.551C85.3345 109.456 85.4084 109.311 85.4084 109.114V109.08C85.4084 108.652 85.2815 108.32 85.0277 108.085C84.7739 107.85 84.4084 107.733 83.9311 107.733C83.4273 107.733 83.0277 107.843 82.7322 108.062C82.4406 108.282 82.2436 108.542 82.1413 108.841L80.2209 108.568C80.3724 108.038 80.6224 107.595 80.9709 107.239C81.3194 106.879 81.7455 106.61 82.2493 106.432C82.7531 106.25 83.3099 106.159 83.9197 106.159C84.3402 106.159 84.7588 106.208 85.1754 106.307C85.5921 106.405 85.9728 106.568 86.3175 106.795C86.6622 107.019 86.9387 107.324 87.147 107.71C87.3591 108.097 87.4652 108.58 87.4652 109.159V115H85.4879V113.801H85.4197C85.2947 114.044 85.1186 114.271 84.8913 114.483C84.6679 114.691 84.3857 114.86 84.0447 114.989C83.7076 115.114 83.3118 115.176 82.8572 115.176ZM83.3913 113.665C83.8042 113.665 84.1622 113.583 84.4652 113.42C84.7682 113.254 85.0012 113.034 85.1641 112.761C85.3307 112.489 85.4141 112.191 85.4141 111.869V110.841C85.3497 110.894 85.2398 110.943 85.0845 110.989C84.933 111.034 84.7625 111.074 84.5732 111.108C84.3838 111.142 84.1963 111.172 84.0107 111.199C83.825 111.225 83.6641 111.248 83.5277 111.267C83.2209 111.309 82.9463 111.377 82.7038 111.472C82.4614 111.566 82.2701 111.699 82.13 111.869C81.9898 112.036 81.9197 112.252 81.9197 112.517C81.9197 112.896 82.058 113.182 82.3345 113.375C82.611 113.568 82.9633 113.665 83.3913 113.665ZM93.8913 106.273V107.864H88.8743V106.273H93.8913ZM90.1129 104.182H92.1697V112.375C92.1697 112.652 92.2114 112.864 92.2947 113.011C92.3819 113.155 92.4955 113.254 92.6357 113.307C92.7758 113.36 92.9311 113.386 93.1016 113.386C93.2304 113.386 93.3478 113.377 93.4538 113.358C93.5637 113.339 93.647 113.322 93.7038 113.307L94.0504 114.915C93.9406 114.953 93.7834 114.994 93.5788 115.04C93.3781 115.085 93.1319 115.112 92.8402 115.119C92.325 115.134 91.861 115.057 91.4482 114.886C91.0353 114.712 90.7076 114.443 90.4652 114.08C90.2266 113.716 90.1091 113.261 90.1129 112.716V104.182ZM99.3814 115.17C98.5064 115.17 97.7507 114.989 97.1143 114.625C96.4818 114.258 95.995 113.739 95.6541 113.068C95.3132 112.394 95.1428 111.6 95.1428 110.688C95.1428 109.79 95.3132 109.002 95.6541 108.324C95.9988 107.642 96.4799 107.112 97.0973 106.733C97.7147 106.35 98.4401 106.159 99.2734 106.159C99.8113 106.159 100.319 106.246 100.796 106.42C101.277 106.591 101.701 106.856 102.069 107.216C102.44 107.576 102.732 108.034 102.944 108.591C103.156 109.144 103.262 109.803 103.262 110.568V111.199H96.1087V109.812H101.29C101.287 109.419 101.201 109.068 101.035 108.761C100.868 108.451 100.635 108.206 100.336 108.028C100.04 107.85 99.6958 107.761 99.3018 107.761C98.8814 107.761 98.5121 107.864 98.1939 108.068C97.8757 108.269 97.6276 108.534 97.4496 108.864C97.2753 109.189 97.1863 109.547 97.1825 109.938V111.148C97.1825 111.655 97.2753 112.091 97.4609 112.455C97.6465 112.814 97.906 113.091 98.2393 113.284C98.5727 113.473 98.9628 113.568 99.4098 113.568C99.709 113.568 99.9799 113.527 100.222 113.443C100.465 113.356 100.675 113.229 100.853 113.062C101.031 112.896 101.165 112.689 101.256 112.443L103.177 112.659C103.056 113.167 102.825 113.61 102.484 113.989C102.147 114.364 101.715 114.655 101.188 114.864C100.662 115.068 100.059 115.17 99.3814 115.17ZM115.138 103.364V115H113.031V103.364H115.138ZM119.387 109.886V115H117.33V106.273H119.296V107.756H119.398C119.599 107.267 119.919 106.879 120.359 106.591C120.802 106.303 121.349 106.159 122.001 106.159C122.603 106.159 123.128 106.288 123.575 106.545C124.025 106.803 124.374 107.176 124.62 107.665C124.87 108.153 124.993 108.746 124.989 109.443V115H122.933V109.761C122.933 109.178 122.781 108.722 122.478 108.392C122.179 108.062 121.764 107.898 121.234 107.898C120.874 107.898 120.554 107.977 120.273 108.136C119.997 108.292 119.779 108.517 119.62 108.812C119.465 109.108 119.387 109.466 119.387 109.886ZM129.137 109.886V115H127.08V106.273H129.046V107.756H129.148C129.349 107.267 129.669 106.879 130.109 106.591C130.552 106.303 131.099 106.159 131.751 106.159C132.353 106.159 132.878 106.288 133.325 106.545C133.775 106.803 134.124 107.176 134.37 107.665C134.62 108.153 134.743 108.746 134.739 109.443V115H132.683V109.761C132.683 109.178 132.531 108.722 132.228 108.392C131.929 108.062 131.514 107.898 130.984 107.898C130.624 107.898 130.304 107.977 130.023 108.136C129.747 108.292 129.529 108.517 129.37 108.812C129.215 109.108 129.137 109.466 129.137 109.886ZM140.637 115.17C139.785 115.17 139.046 114.983 138.421 114.608C137.796 114.233 137.311 113.708 136.967 113.034C136.626 112.36 136.455 111.572 136.455 110.67C136.455 109.769 136.626 108.979 136.967 108.301C137.311 107.623 137.796 107.097 138.421 106.722C139.046 106.347 139.785 106.159 140.637 106.159C141.489 106.159 142.228 106.347 142.853 106.722C143.478 107.097 143.961 107.623 144.302 108.301C144.647 108.979 144.819 109.769 144.819 110.67C144.819 111.572 144.647 112.36 144.302 113.034C143.961 113.708 143.478 114.233 142.853 114.608C142.228 114.983 141.489 115.17 140.637 115.17ZM140.648 113.523C141.111 113.523 141.497 113.396 141.808 113.142C142.118 112.884 142.349 112.54 142.501 112.108C142.656 111.676 142.734 111.195 142.734 110.665C142.734 110.131 142.656 109.648 142.501 109.216C142.349 108.78 142.118 108.434 141.808 108.176C141.497 107.919 141.111 107.79 140.648 107.79C140.175 107.79 139.781 107.919 139.467 108.176C139.156 108.434 138.923 108.78 138.768 109.216C138.616 109.648 138.54 110.131 138.54 110.665C138.54 111.195 138.616 111.676 138.768 112.108C138.923 112.54 139.156 112.884 139.467 113.142C139.781 113.396 140.175 113.523 140.648 113.523ZM154.063 106.273L150.955 115H148.683L145.575 106.273H147.768L149.773 112.756H149.864L151.876 106.273H154.063ZM157.748 115.176C157.195 115.176 156.697 115.078 156.254 114.881C155.814 114.68 155.466 114.384 155.208 113.994C154.954 113.604 154.827 113.123 154.827 112.551C154.827 112.059 154.918 111.652 155.1 111.33C155.282 111.008 155.53 110.75 155.844 110.557C156.159 110.364 156.513 110.218 156.907 110.119C157.305 110.017 157.716 109.943 158.14 109.898C158.651 109.845 159.066 109.797 159.384 109.756C159.702 109.71 159.933 109.642 160.077 109.551C160.225 109.456 160.299 109.311 160.299 109.114V109.08C160.299 108.652 160.172 108.32 159.918 108.085C159.665 107.85 159.299 107.733 158.822 107.733C158.318 107.733 157.918 107.843 157.623 108.062C157.331 108.282 157.134 108.542 157.032 108.841L155.112 108.568C155.263 108.038 155.513 107.595 155.862 107.239C156.21 106.879 156.636 106.61 157.14 106.432C157.644 106.25 158.201 106.159 158.81 106.159C159.231 106.159 159.649 106.208 160.066 106.307C160.483 106.405 160.863 106.568 161.208 106.795C161.553 107.019 161.829 107.324 162.038 107.71C162.25 108.097 162.356 108.58 162.356 109.159V115H160.379V113.801H160.31C160.185 114.044 160.009 114.271 159.782 114.483C159.558 114.691 159.276 114.86 158.935 114.989C158.598 115.114 158.202 115.176 157.748 115.176ZM158.282 113.665C158.695 113.665 159.053 113.583 159.356 113.42C159.659 113.254 159.892 113.034 160.055 112.761C160.221 112.489 160.305 112.191 160.305 111.869V110.841C160.24 110.894 160.13 110.943 159.975 110.989C159.824 111.034 159.653 111.074 159.464 111.108C159.274 111.142 159.087 111.172 158.901 111.199C158.716 111.225 158.555 111.248 158.418 111.267C158.112 111.309 157.837 111.377 157.594 111.472C157.352 111.566 157.161 111.699 157.021 111.869C156.88 112.036 156.81 112.252 156.81 112.517C156.81 112.896 156.949 113.182 157.225 113.375C157.502 113.568 157.854 113.665 158.282 113.665ZM168.782 106.273V107.864H163.765V106.273H168.782ZM165.004 104.182H167.06V112.375C167.06 112.652 167.102 112.864 167.185 113.011C167.272 113.155 167.386 113.254 167.526 113.307C167.666 113.36 167.822 113.386 167.992 113.386C168.121 113.386 168.238 113.377 168.344 113.358C168.454 113.339 168.538 113.322 168.594 113.307L168.941 114.915C168.831 114.953 168.674 114.994 168.469 115.04C168.269 115.085 168.022 115.112 167.731 115.119C167.216 115.134 166.752 115.057 166.339 114.886C165.926 114.712 165.598 114.443 165.356 114.08C165.117 113.716 165 113.261 165.004 112.716V104.182ZM174.272 115.17C173.397 115.17 172.641 114.989 172.005 114.625C171.372 114.258 170.886 113.739 170.545 113.068C170.204 112.394 170.033 111.6 170.033 110.688C170.033 109.79 170.204 109.002 170.545 108.324C170.889 107.642 171.371 107.112 171.988 106.733C172.605 106.35 173.331 106.159 174.164 106.159C174.702 106.159 175.21 106.246 175.687 106.42C176.168 106.591 176.592 106.856 176.96 107.216C177.331 107.576 177.622 108.034 177.835 108.591C178.047 109.144 178.153 109.803 178.153 110.568V111.199H170.999V109.812H176.181C176.177 109.419 176.092 109.068 175.925 108.761C175.759 108.451 175.526 108.206 175.227 108.028C174.931 107.85 174.586 107.761 174.192 107.761C173.772 107.761 173.403 107.864 173.085 108.068C172.766 108.269 172.518 108.534 172.34 108.864C172.166 109.189 172.077 109.547 172.073 109.938V111.148C172.073 111.655 172.166 112.091 172.352 112.455C172.537 112.814 172.797 113.091 173.13 113.284C173.463 113.473 173.853 113.568 174.3 113.568C174.6 113.568 174.871 113.527 175.113 113.443C175.355 113.356 175.566 113.229 175.744 113.062C175.922 112.896 176.056 112.689 176.147 112.443L178.067 112.659C177.946 113.167 177.715 113.61 177.374 113.989C177.037 114.364 176.605 114.655 176.079 114.864C175.552 115.068 174.95 115.17 174.272 115.17Z" fill="white"/>
</svg>
