<svg width="222" height="59" viewBox="0 0 222 59" fill="none" xmlns="http://www.w3.org/2000/svg">
<path d="M44.3118 55V43.3636H46.4197V53.233H51.5447V55H44.3118ZM57.147 55.1705C56.272 55.1705 55.5163 54.9886 54.88 54.625C54.2474 54.2576 53.7607 53.7386 53.4197 53.0682C53.0788 52.3939 52.9084 51.6004 52.9084 50.6875C52.9084 49.7898 53.0788 49.0019 53.4197 48.3239C53.7644 47.642 54.2455 47.1117 54.8629 46.733C55.4804 46.3504 56.2057 46.1591 57.0391 46.1591C57.5769 46.1591 58.0845 46.2462 58.5618 46.4205C59.0429 46.5909 59.4671 46.8561 59.8345 47.2159C60.2057 47.5758 60.4974 48.0341 60.7095 48.5909C60.9216 49.1439 61.0277 49.803 61.0277 50.5682V51.1989H53.8743V49.8125H59.0561C59.0523 49.4186 58.9671 49.0682 58.8004 48.7614C58.6338 48.4508 58.4008 48.2064 58.1016 48.0284C57.8061 47.8504 57.4614 47.7614 57.0675 47.7614C56.647 47.7614 56.2777 47.8636 55.9595 48.0682C55.6413 48.2689 55.3932 48.5341 55.2152 48.8636C55.041 49.1894 54.9519 49.5473 54.9482 49.9375V51.1477C54.9482 51.6553 55.041 52.0909 55.2266 52.4545C55.4122 52.8144 55.6716 53.0909 56.005 53.2841C56.3383 53.4735 56.7285 53.5682 57.1754 53.5682C57.4747 53.5682 57.7455 53.5265 57.9879 53.4432C58.2304 53.3561 58.4406 53.2292 58.6186 53.0625C58.7966 52.8958 58.9311 52.6894 59.022 52.4432L60.9425 52.6591C60.8213 53.1667 60.5902 53.6098 60.2493 53.9886C59.9122 54.3636 59.4804 54.6553 58.9538 54.8636C58.4273 55.0682 57.825 55.1705 57.147 55.1705ZM65.2791 55.1761C64.7261 55.1761 64.228 55.0777 63.7848 54.8807C63.3454 54.6799 62.9969 54.3845 62.7393 53.9943C62.4856 53.6042 62.3587 53.1231 62.3587 52.5511C62.3587 52.0587 62.4496 51.6515 62.6314 51.3295C62.8132 51.0076 63.0613 50.75 63.3757 50.5568C63.6901 50.3636 64.0443 50.2178 64.4382 50.1193C64.8359 50.017 65.2469 49.9432 65.6712 49.8977C66.1825 49.8447 66.5973 49.7973 66.9155 49.7557C67.2337 49.7102 67.4647 49.642 67.6087 49.5511C67.7564 49.4564 67.8303 49.3106 67.8303 49.1136V49.0795C67.8303 48.6515 67.7034 48.3201 67.4496 48.0852C67.1958 47.8504 66.8303 47.733 66.353 47.733C65.8492 47.733 65.4496 47.8428 65.1541 48.0625C64.8625 48.2822 64.6655 48.5417 64.5632 48.8409L62.6428 48.5682C62.7943 48.0379 63.0443 47.5947 63.3928 47.2386C63.7412 46.8788 64.1674 46.6098 64.6712 46.4318C65.175 46.25 65.7318 46.1591 66.3416 46.1591C66.7621 46.1591 67.1806 46.2083 67.5973 46.3068C68.014 46.4053 68.3946 46.5682 68.7393 46.7955C69.084 47.0189 69.3606 47.3239 69.5689 47.7102C69.781 48.0966 69.8871 48.5795 69.8871 49.1591V55H67.9098V53.8011H67.8416C67.7166 54.0436 67.5405 54.2708 67.3132 54.483C67.0897 54.6913 66.8075 54.8598 66.4666 54.9886C66.1295 55.1136 65.7337 55.1761 65.2791 55.1761ZM65.8132 53.6648C66.2261 53.6648 66.584 53.5833 66.8871 53.4205C67.1901 53.2538 67.4231 53.0341 67.5859 52.7614C67.7526 52.4886 67.8359 52.1913 67.8359 51.8693V50.8409C67.7715 50.8939 67.6617 50.9432 67.5064 50.9886C67.3549 51.0341 67.1844 51.0739 66.995 51.108C66.8056 51.142 66.6181 51.1723 66.4325 51.1989C66.2469 51.2254 66.0859 51.2481 65.9496 51.267C65.6428 51.3087 65.3681 51.3769 65.1257 51.4716C64.8833 51.5663 64.692 51.6989 64.5518 51.8693C64.4117 52.036 64.3416 52.2519 64.3416 52.517C64.3416 52.8958 64.4799 53.1818 64.7564 53.375C65.0329 53.5682 65.3852 53.6648 65.8132 53.6648ZM71.9553 55V46.2727H73.9496V47.7273H74.0405C74.1996 47.2235 74.4723 46.8352 74.8587 46.5625C75.2488 46.286 75.6939 46.1477 76.1939 46.1477C76.3075 46.1477 76.4344 46.1534 76.5746 46.1648C76.7185 46.1723 76.8378 46.1856 76.9325 46.2045V48.0966C76.8454 48.0663 76.7071 48.0398 76.5178 48.017C76.3321 47.9905 76.1522 47.9773 75.978 47.9773C75.603 47.9773 75.2659 48.0587 74.9666 48.2216C74.6712 48.3807 74.4382 48.6023 74.2678 48.8864C74.0973 49.1705 74.0121 49.4981 74.0121 49.8693V55H71.9553ZM80.3558 49.8864V55H78.299V46.2727H80.2649V47.7557H80.3672C80.5679 47.267 80.888 46.8788 81.3274 46.5909C81.7706 46.303 82.3179 46.1591 82.9695 46.1591C83.5717 46.1591 84.0964 46.2879 84.5433 46.5455C84.9941 46.803 85.3426 47.1761 85.5888 47.6648C85.8388 48.1534 85.9619 48.7462 85.9581 49.4432V55H83.9013V49.7614C83.9013 49.178 83.7498 48.7216 83.4467 48.392C83.1475 48.0625 82.7327 47.8977 82.2024 47.8977C81.8426 47.8977 81.5225 47.9773 81.2422 48.1364C80.9657 48.2917 80.7479 48.517 80.5888 48.8125C80.4335 49.108 80.3558 49.4659 80.3558 49.8864ZM106.038 47.2898H103.913C103.852 46.9413 103.74 46.6326 103.577 46.3636C103.415 46.0909 103.212 45.8598 102.969 45.6705C102.727 45.4811 102.451 45.339 102.14 45.2443C101.833 45.1458 101.502 45.0966 101.146 45.0966C100.513 45.0966 99.9524 45.2557 99.4638 45.5739C98.9751 45.8883 98.5926 46.3504 98.3161 46.9602C98.0395 47.5663 97.9013 48.3068 97.9013 49.1818C97.9013 50.072 98.0395 50.822 98.3161 51.4318C98.5964 52.0379 98.9789 52.4962 99.4638 52.8068C99.9524 53.1136 100.511 53.267 101.14 53.267C101.488 53.267 101.814 53.2216 102.117 53.1307C102.424 53.036 102.699 52.8977 102.941 52.7159C103.187 52.5341 103.394 52.3106 103.56 52.0455C103.731 51.7803 103.848 51.4773 103.913 51.1364L106.038 51.1477C105.958 51.7008 105.786 52.2197 105.521 52.7045C105.259 53.1894 104.916 53.6174 104.492 53.9886C104.068 54.3561 103.572 54.6439 103.004 54.8523C102.435 55.0568 101.805 55.1591 101.112 55.1591C100.089 55.1591 99.1759 54.9223 98.3729 54.4489C97.5698 53.9754 96.9373 53.2917 96.4751 52.3977C96.013 51.5038 95.782 50.4318 95.782 49.1818C95.782 47.928 96.0149 46.8561 96.4808 45.9659C96.9467 45.072 97.5812 44.3883 98.3842 43.9148C99.1873 43.4413 100.096 43.2045 101.112 43.2045C101.759 43.2045 102.362 43.2955 102.918 43.4773C103.475 43.6591 103.971 43.9261 104.407 44.2784C104.843 44.6269 105.201 45.0549 105.481 45.5625C105.765 46.0663 105.951 46.642 106.038 47.2898ZM107.877 55V46.2727H109.871V47.7273H109.962C110.121 47.2235 110.394 46.8352 110.781 46.5625C111.171 46.286 111.616 46.1477 112.116 46.1477C112.229 46.1477 112.356 46.1534 112.496 46.1648C112.64 46.1723 112.76 46.1856 112.854 46.2045V48.0966C112.767 48.0663 112.629 48.0398 112.44 48.017C112.254 47.9905 112.074 47.9773 111.9 47.9773C111.525 47.9773 111.188 48.0587 110.888 48.2216C110.593 48.3807 110.36 48.6023 110.19 48.8864C110.019 49.1705 109.934 49.4981 109.934 49.8693V55H107.877ZM117.725 55.1705C116.85 55.1705 116.094 54.9886 115.458 54.625C114.826 54.2576 114.339 53.7386 113.998 53.0682C113.657 52.3939 113.487 51.6004 113.487 50.6875C113.487 49.7898 113.657 49.0019 113.998 48.3239C114.343 47.642 114.824 47.1117 115.441 46.733C116.058 46.3504 116.784 46.1591 117.617 46.1591C118.155 46.1591 118.663 46.2462 119.14 46.4205C119.621 46.5909 120.045 46.8561 120.413 47.2159C120.784 47.5758 121.076 48.0341 121.288 48.5909C121.5 49.1439 121.606 49.803 121.606 50.5682V51.1989H114.452V49.8125H119.634C119.63 49.4186 119.545 49.0682 119.379 48.7614C119.212 48.4508 118.979 48.2064 118.68 48.0284C118.384 47.8504 118.04 47.7614 117.646 47.7614C117.225 47.7614 116.856 47.8636 116.538 48.0682C116.219 48.2689 115.971 48.5341 115.793 48.8636C115.619 49.1894 115.53 49.5473 115.526 49.9375V51.1477C115.526 51.6553 115.619 52.0909 115.805 52.4545C115.99 52.8144 116.25 53.0909 116.583 53.2841C116.916 53.4735 117.307 53.5682 117.754 53.5682C118.053 53.5682 118.324 53.5265 118.566 53.4432C118.808 53.3561 119.019 53.2292 119.197 53.0625C119.375 52.8958 119.509 52.6894 119.6 52.4432L121.521 52.6591C121.399 53.1667 121.168 53.6098 120.827 53.9886C120.49 54.3636 120.058 54.6553 119.532 54.8636C119.005 55.0682 118.403 55.1705 117.725 55.1705ZM125.857 55.1761C125.304 55.1761 124.806 55.0777 124.363 54.8807C123.924 54.6799 123.575 54.3845 123.317 53.9943C123.064 53.6042 122.937 53.1231 122.937 52.5511C122.937 52.0587 123.028 51.6515 123.21 51.3295C123.391 51.0076 123.639 50.75 123.954 50.5568C124.268 50.3636 124.622 50.2178 125.016 50.1193C125.414 50.017 125.825 49.9432 126.249 49.8977C126.761 49.8447 127.175 49.7973 127.494 49.7557C127.812 49.7102 128.043 49.642 128.187 49.5511C128.335 49.4564 128.408 49.3106 128.408 49.1136V49.0795C128.408 48.6515 128.281 48.3201 128.028 48.0852C127.774 47.8504 127.408 47.733 126.931 47.733C126.427 47.733 126.028 47.8428 125.732 48.0625C125.441 48.2822 125.244 48.5417 125.141 48.8409L123.221 48.5682C123.372 48.0379 123.622 47.5947 123.971 47.2386C124.319 46.8788 124.746 46.6098 125.249 46.4318C125.753 46.25 126.31 46.1591 126.92 46.1591C127.34 46.1591 127.759 46.2083 128.175 46.3068C128.592 46.4053 128.973 46.5682 129.317 46.7955C129.662 47.0189 129.939 47.3239 130.147 47.7102C130.359 48.0966 130.465 48.5795 130.465 49.1591V55H128.488V53.8011H128.42C128.295 54.0436 128.119 54.2708 127.891 54.483C127.668 54.6913 127.386 54.8598 127.045 54.9886C126.708 55.1136 126.312 55.1761 125.857 55.1761ZM126.391 53.6648C126.804 53.6648 127.162 53.5833 127.465 53.4205C127.768 53.2538 128.001 53.0341 128.164 52.7614C128.331 52.4886 128.414 52.1913 128.414 51.8693V50.8409C128.35 50.8939 128.24 50.9432 128.085 50.9886C127.933 51.0341 127.763 51.0739 127.573 51.108C127.384 51.142 127.196 51.1723 127.011 51.1989C126.825 51.2254 126.664 51.2481 126.528 51.267C126.221 51.3087 125.946 51.3769 125.704 51.4716C125.461 51.5663 125.27 51.6989 125.13 51.8693C124.99 52.036 124.92 52.2519 124.92 52.517C124.92 52.8958 125.058 53.1818 125.335 53.375C125.611 53.5682 125.963 53.6648 126.391 53.6648ZM136.891 46.2727V47.8636H131.874V46.2727H136.891ZM133.113 44.1818H135.17V52.375C135.17 52.6515 135.211 52.8636 135.295 53.0114C135.382 53.1553 135.496 53.2538 135.636 53.3068C135.776 53.3598 135.931 53.3864 136.102 53.3864C136.23 53.3864 136.348 53.3769 136.454 53.358C136.564 53.339 136.647 53.322 136.704 53.3068L137.05 54.9148C136.941 54.9527 136.783 54.9943 136.579 55.0398C136.378 55.0852 136.132 55.1117 135.84 55.1193C135.325 55.1345 134.861 55.0568 134.448 54.8864C134.035 54.7121 133.708 54.4432 133.465 54.0795C133.227 53.7159 133.109 53.2614 133.113 52.7159V44.1818ZM142.381 55.1705C141.506 55.1705 140.751 54.9886 140.114 54.625C139.482 54.2576 138.995 53.7386 138.654 53.0682C138.313 52.3939 138.143 51.6004 138.143 50.6875C138.143 49.7898 138.313 49.0019 138.654 48.3239C138.999 47.642 139.48 47.1117 140.097 46.733C140.715 46.3504 141.44 46.1591 142.273 46.1591C142.811 46.1591 143.319 46.2462 143.796 46.4205C144.277 46.5909 144.701 46.8561 145.069 47.2159C145.44 47.5758 145.732 48.0341 145.944 48.5909C146.156 49.1439 146.262 49.803 146.262 50.5682V51.1989H139.109V49.8125H144.29C144.287 49.4186 144.201 49.0682 144.035 48.7614C143.868 48.4508 143.635 48.2064 143.336 48.0284C143.04 47.8504 142.696 47.7614 142.302 47.7614C141.881 47.7614 141.512 47.8636 141.194 48.0682C140.876 48.2689 140.628 48.5341 140.45 48.8636C140.275 49.1894 140.186 49.5473 140.183 49.9375V51.1477C140.183 51.6553 140.275 52.0909 140.461 52.4545C140.647 52.8144 140.906 53.0909 141.239 53.2841C141.573 53.4735 141.963 53.5682 142.41 53.5682C142.709 53.5682 142.98 53.5265 143.222 53.4432C143.465 53.3561 143.675 53.2292 143.853 53.0625C144.031 52.8958 144.165 52.6894 144.256 52.4432L146.177 52.6591C146.056 53.1667 145.825 53.6098 145.484 53.9886C145.147 54.3636 144.715 54.6553 144.188 54.8636C143.662 55.0682 143.059 55.1705 142.381 55.1705ZM158.138 43.3636V55H156.031V43.3636H158.138ZM162.387 49.8864V55H160.33V46.2727H162.296V47.7557H162.398C162.599 47.267 162.919 46.8788 163.359 46.5909C163.802 46.303 164.349 46.1591 165.001 46.1591C165.603 46.1591 166.128 46.2879 166.575 46.5455C167.025 46.803 167.374 47.1761 167.62 47.6648C167.87 48.1534 167.993 48.7462 167.989 49.4432V55H165.933V49.7614C165.933 49.178 165.781 48.7216 165.478 48.392C165.179 48.0625 164.764 47.8977 164.234 47.8977C163.874 47.8977 163.554 47.9773 163.273 48.1364C162.997 48.2917 162.779 48.517 162.62 48.8125C162.465 49.108 162.387 49.4659 162.387 49.8864ZM172.137 49.8864V55H170.08V46.2727H172.046V47.7557H172.148C172.349 47.267 172.669 46.8788 173.109 46.5909C173.552 46.303 174.099 46.1591 174.751 46.1591C175.353 46.1591 175.878 46.2879 176.325 46.5455C176.775 46.803 177.124 47.1761 177.37 47.6648C177.62 48.1534 177.743 48.7462 177.739 49.4432V55H175.683V49.7614C175.683 49.178 175.531 48.7216 175.228 48.392C174.929 48.0625 174.514 47.8977 173.984 47.8977C173.624 47.8977 173.304 47.9773 173.023 48.1364C172.747 48.2917 172.529 48.517 172.37 48.8125C172.215 49.108 172.137 49.4659 172.137 49.8864ZM183.637 55.1705C182.785 55.1705 182.046 54.983 181.421 54.608C180.796 54.233 180.311 53.7083 179.967 53.0341C179.626 52.3598 179.455 51.572 179.455 50.6705C179.455 49.7689 179.626 48.9792 179.967 48.3011C180.311 47.6231 180.796 47.0966 181.421 46.7216C182.046 46.3466 182.785 46.1591 183.637 46.1591C184.489 46.1591 185.228 46.3466 185.853 46.7216C186.478 47.0966 186.961 47.6231 187.302 48.3011C187.647 48.9792 187.819 49.7689 187.819 50.6705C187.819 51.572 187.647 52.3598 187.302 53.0341C186.961 53.7083 186.478 54.233 185.853 54.608C185.228 54.983 184.489 55.1705 183.637 55.1705ZM183.648 53.5227C184.111 53.5227 184.497 53.3958 184.808 53.142C185.118 52.8845 185.349 52.5398 185.501 52.108C185.656 51.6761 185.734 51.1951 185.734 50.6648C185.734 50.1307 185.656 49.6477 185.501 49.2159C185.349 48.7803 185.118 48.4337 184.808 48.1761C184.497 47.9186 184.111 47.7898 183.648 47.7898C183.175 47.7898 182.781 47.9186 182.467 48.1761C182.156 48.4337 181.923 48.7803 181.768 49.2159C181.616 49.6477 181.54 50.1307 181.54 50.6648C181.54 51.1951 181.616 51.6761 181.768 52.108C181.923 52.5398 182.156 52.8845 182.467 53.142C182.781 53.3958 183.175 53.5227 183.648 53.5227ZM197.063 46.2727L193.955 55H191.683L188.575 46.2727H190.768L192.773 52.7557H192.864L194.876 46.2727H197.063ZM200.748 55.1761C200.195 55.1761 199.697 55.0777 199.254 54.8807C198.814 54.6799 198.466 54.3845 198.208 53.9943C197.954 53.6042 197.827 53.1231 197.827 52.5511C197.827 52.0587 197.918 51.6515 198.1 51.3295C198.282 51.0076 198.53 50.75 198.844 50.5568C199.159 50.3636 199.513 50.2178 199.907 50.1193C200.305 50.017 200.716 49.9432 201.14 49.8977C201.651 49.8447 202.066 49.7973 202.384 49.7557C202.702 49.7102 202.933 49.642 203.077 49.5511C203.225 49.4564 203.299 49.3106 203.299 49.1136V49.0795C203.299 48.6515 203.172 48.3201 202.918 48.0852C202.665 47.8504 202.299 47.733 201.822 47.733C201.318 47.733 200.918 47.8428 200.623 48.0625C200.331 48.2822 200.134 48.5417 200.032 48.8409L198.112 48.5682C198.263 48.0379 198.513 47.5947 198.862 47.2386C199.21 46.8788 199.636 46.6098 200.14 46.4318C200.644 46.25 201.201 46.1591 201.81 46.1591C202.231 46.1591 202.649 46.2083 203.066 46.3068C203.483 46.4053 203.863 46.5682 204.208 46.7955C204.553 47.0189 204.829 47.3239 205.038 47.7102C205.25 48.0966 205.356 48.5795 205.356 49.1591V55H203.379V53.8011H203.31C203.185 54.0436 203.009 54.2708 202.782 54.483C202.558 54.6913 202.276 54.8598 201.935 54.9886C201.598 55.1136 201.202 55.1761 200.748 55.1761ZM201.282 53.6648C201.695 53.6648 202.053 53.5833 202.356 53.4205C202.659 53.2538 202.892 53.0341 203.055 52.7614C203.221 52.4886 203.305 52.1913 203.305 51.8693V50.8409C203.24 50.8939 203.13 50.9432 202.975 50.9886C202.824 51.0341 202.653 51.0739 202.464 51.108C202.274 51.142 202.087 51.1723 201.901 51.1989C201.716 51.2254 201.555 51.2481 201.418 51.267C201.112 51.3087 200.837 51.3769 200.594 51.4716C200.352 51.5663 200.161 51.6989 200.021 51.8693C199.88 52.036 199.81 52.2519 199.81 52.517C199.81 52.8958 199.949 53.1818 200.225 53.375C200.502 53.5682 200.854 53.6648 201.282 53.6648ZM211.782 46.2727V47.8636H206.765V46.2727H211.782ZM208.004 44.1818H210.06V52.375C210.06 52.6515 210.102 52.8636 210.185 53.0114C210.272 53.1553 210.386 53.2538 210.526 53.3068C210.666 53.3598 210.822 53.3864 210.992 53.3864C211.121 53.3864 211.238 53.3769 211.344 53.358C211.454 53.339 211.538 53.322 211.594 53.3068L211.941 54.9148C211.831 54.9527 211.674 54.9943 211.469 55.0398C211.269 55.0852 211.022 55.1117 210.731 55.1193C210.216 55.1345 209.752 55.0568 209.339 54.8864C208.926 54.7121 208.598 54.4432 208.356 54.0795C208.117 53.7159 208 53.2614 208.004 52.7159V44.1818ZM217.272 55.1705C216.397 55.1705 215.641 54.9886 215.005 54.625C214.372 54.2576 213.886 53.7386 213.545 53.0682C213.204 52.3939 213.033 51.6004 213.033 50.6875C213.033 49.7898 213.204 49.0019 213.545 48.3239C213.889 47.642 214.371 47.1117 214.988 46.733C215.605 46.3504 216.331 46.1591 217.164 46.1591C217.702 46.1591 218.21 46.2462 218.687 46.4205C219.168 46.5909 219.592 46.8561 219.96 47.2159C220.331 47.5758 220.622 48.0341 220.835 48.5909C221.047 49.1439 221.153 49.803 221.153 50.5682V51.1989H213.999V49.8125H219.181C219.177 49.4186 219.092 49.0682 218.925 48.7614C218.759 48.4508 218.526 48.2064 218.227 48.0284C217.931 47.8504 217.586 47.7614 217.192 47.7614C216.772 47.7614 216.403 47.8636 216.085 48.0682C215.766 48.2689 215.518 48.5341 215.34 48.8636C215.166 49.1894 215.077 49.5473 215.073 49.9375V51.1477C215.073 51.6553 215.166 52.0909 215.352 52.4545C215.537 52.8144 215.797 53.0909 216.13 53.2841C216.463 53.4735 216.853 53.5682 217.3 53.5682C217.6 53.5682 217.871 53.5265 218.113 53.4432C218.355 53.3561 218.566 53.2292 218.744 53.0625C218.922 52.8958 219.056 52.6894 219.147 52.4432L221.067 52.6591C220.946 53.1667 220.715 53.6098 220.374 53.9886C220.037 54.3636 219.605 54.6553 219.079 54.8636C218.552 55.0682 217.95 55.1705 217.272 55.1705Z" fill="#F4F6FF"/>
<path d="M40.321 38V20.5455H47.5312C48.8381 20.5455 49.9659 20.7812 50.9148 21.2528C51.8693 21.7187 52.6051 22.3892 53.1222 23.2642C53.6392 24.1335 53.8977 25.1648 53.8977 26.358C53.8977 27.5682 53.6335 28.5966 53.1051 29.4432C52.5767 30.2841 51.8267 30.9261 50.8551 31.3693C49.8835 31.8068 48.733 32.0256 47.4034 32.0256H42.8438V28.7017H46.6193C47.2557 28.7017 47.7869 28.6193 48.2131 28.4545C48.6449 28.2841 48.9716 28.0284 49.1932 27.6875C49.4148 27.3409 49.5256 26.8977 49.5256 26.358C49.5256 25.8182 49.4148 25.3722 49.1932 25.0199C48.9716 24.6619 48.6449 24.3949 48.2131 24.2188C47.7813 24.0369 47.25 23.946 46.6193 23.946H44.5398V38H40.321ZM50.1477 30.0227L54.4943 38H49.892L45.6307 30.0227H50.1477ZM62.0646 38.2472C60.6896 38.2472 59.5078 37.9659 58.5192 37.4034C57.5362 36.8352 56.7777 36.0455 56.2436 35.0341C55.7152 34.017 55.451 32.8381 55.451 31.4972C55.451 30.1506 55.7152 28.9716 56.2436 27.9602C56.7777 26.9432 57.5362 26.1534 58.5192 25.5909C59.5078 25.0227 60.6896 24.7386 62.0646 24.7386C63.4396 24.7386 64.6186 25.0227 65.6016 25.5909C66.5902 26.1534 67.3487 26.9432 67.8771 27.9602C68.4112 28.9716 68.6783 30.1506 68.6783 31.4972C68.6783 32.8381 68.4112 34.017 67.8771 35.0341C67.3487 36.0455 66.5902 36.8352 65.6016 37.4034C64.6186 37.9659 63.4396 38.2472 62.0646 38.2472ZM62.0902 35.1023C62.5902 35.1023 63.0135 34.9489 63.3601 34.642C63.7067 34.3352 63.9709 33.9091 64.1527 33.3636C64.3402 32.8182 64.4339 32.1875 64.4339 31.4716C64.4339 30.7443 64.3402 30.108 64.1527 29.5625C63.9709 29.017 63.7067 28.5909 63.3601 28.2841C63.0135 27.9773 62.5902 27.8239 62.0902 27.8239C61.5732 27.8239 61.1357 27.9773 60.7777 28.2841C60.4254 28.5909 60.1555 29.017 59.968 29.5625C59.7862 30.108 59.6953 30.7443 59.6953 31.4716C59.6953 32.1875 59.7862 32.8182 59.968 33.3636C60.1555 33.9091 60.4254 34.3352 60.7777 34.642C61.1357 34.9489 61.5732 35.1023 62.0902 35.1023ZM70.8132 38V20.5455H74.9808V27.1506H75.0661C75.2365 26.7528 75.478 26.3693 75.7905 26C76.1087 25.6307 76.5121 25.3295 77.0007 25.0966C77.495 24.858 78.0859 24.7386 78.7734 24.7386C79.6825 24.7386 80.532 24.9773 81.3217 25.4545C82.1172 25.9318 82.7592 26.6676 83.2479 27.6619C83.7365 28.6562 83.9808 29.9233 83.9808 31.4631C83.9808 32.946 83.745 34.1875 83.2734 35.1875C82.8075 36.1875 82.1768 36.9375 81.3814 37.4375C80.5916 37.9375 79.7138 38.1875 78.7479 38.1875C78.0888 38.1875 77.5178 38.0795 77.0348 37.8636C76.5518 37.6477 76.1456 37.3636 75.8161 37.0114C75.4922 36.6591 75.2422 36.2812 75.0661 35.8778H74.9382V38H70.8132ZM74.8956 31.4545C74.8956 32.1591 74.9893 32.7727 75.1768 33.2955C75.37 33.8182 75.6456 34.2244 76.0036 34.5142C76.3672 34.7983 76.8018 34.9403 77.3075 34.9403C77.8189 34.9403 78.2536 34.7983 78.6115 34.5142C78.9695 34.2244 79.2393 33.8182 79.4212 33.2955C79.6087 32.7727 79.7024 32.1591 79.7024 31.4545C79.7024 30.75 79.6087 30.1392 79.4212 29.6222C79.2393 29.1051 78.9695 28.7045 78.6115 28.4205C78.2592 28.1364 77.8246 27.9943 77.3075 27.9943C76.7962 27.9943 76.3615 28.1335 76.0036 28.4119C75.6456 28.6903 75.37 29.0881 75.1768 29.6051C74.9893 30.1222 74.8956 30.7386 74.8956 31.4545ZM92.2756 38.2472C90.9006 38.2472 89.7188 37.9659 88.7301 37.4034C87.7472 36.8352 86.9886 36.0455 86.4545 35.0341C85.9261 34.017 85.6619 32.8381 85.6619 31.4972C85.6619 30.1506 85.9261 28.9716 86.4545 27.9602C86.9886 26.9432 87.7472 26.1534 88.7301 25.5909C89.7188 25.0227 90.9006 24.7386 92.2756 24.7386C93.6506 24.7386 94.8295 25.0227 95.8125 25.5909C96.8011 26.1534 97.5597 26.9432 98.0881 27.9602C98.6222 28.9716 98.8892 30.1506 98.8892 31.4972C98.8892 32.8381 98.6222 34.017 98.0881 35.0341C97.5597 36.0455 96.8011 36.8352 95.8125 37.4034C94.8295 37.9659 93.6506 38.2472 92.2756 38.2472ZM92.3011 35.1023C92.8011 35.1023 93.2244 34.9489 93.571 34.642C93.9176 34.3352 94.1818 33.9091 94.3636 33.3636C94.5511 32.8182 94.6449 32.1875 94.6449 31.4716C94.6449 30.7443 94.5511 30.108 94.3636 29.5625C94.1818 29.017 93.9176 28.5909 93.571 28.2841C93.2244 27.9773 92.8011 27.8239 92.3011 27.8239C91.7841 27.8239 91.3466 27.9773 90.9886 28.2841C90.6364 28.5909 90.3665 29.017 90.179 29.5625C89.9972 30.108 89.9062 30.7443 89.9062 31.4716C89.9062 32.1875 89.9972 32.8182 90.179 33.3636C90.3665 33.9091 90.6364 34.3352 90.9886 34.642C91.3466 34.9489 91.7841 35.1023 92.3011 35.1023ZM101.024 38V20.5455H105.243V34.5739H112.504V38H101.024ZM118.379 38.2216C117.543 38.2216 116.802 38.0824 116.154 37.804C115.512 37.5199 115.004 37.0937 114.629 36.5256C114.259 35.9517 114.075 35.233 114.075 34.3693C114.075 33.642 114.202 33.0284 114.458 32.5284C114.714 32.0284 115.066 31.6222 115.515 31.3097C115.964 30.9972 116.481 30.7614 117.066 30.6023C117.651 30.4375 118.276 30.3267 118.941 30.2699C119.685 30.2017 120.285 30.1307 120.739 30.0568C121.194 29.9773 121.523 29.8665 121.728 29.7244C121.938 29.5767 122.043 29.3693 122.043 29.1023V29.0597C122.043 28.6222 121.893 28.2841 121.592 28.0455C121.29 27.8068 120.884 27.6875 120.373 27.6875C119.822 27.6875 119.379 27.8068 119.043 28.0455C118.708 28.2841 118.495 28.6136 118.404 29.0341L114.56 28.8977C114.674 28.1023 114.967 27.392 115.438 26.767C115.915 26.1364 116.569 25.642 117.398 25.2841C118.234 24.9205 119.237 24.7386 120.407 24.7386C121.242 24.7386 122.012 24.8381 122.717 25.0369C123.421 25.2301 124.035 25.5142 124.558 25.8892C125.08 26.2585 125.484 26.7131 125.768 27.2528C126.058 27.7926 126.202 28.4091 126.202 29.1023V38H122.282V36.1761H122.18C121.947 36.6193 121.648 36.9943 121.285 37.3011C120.927 37.608 120.504 37.8381 120.015 37.9915C119.532 38.1449 118.987 38.2216 118.379 38.2216ZM119.665 35.4943C120.114 35.4943 120.518 35.4034 120.876 35.2216C121.239 35.0398 121.529 34.7898 121.745 34.4716C121.961 34.1477 122.069 33.7727 122.069 33.3466V32.1023C121.95 32.1648 121.805 32.2216 121.634 32.2727C121.469 32.3239 121.288 32.3722 121.089 32.4176C120.89 32.4631 120.685 32.5028 120.475 32.5369C120.265 32.571 120.063 32.6023 119.87 32.6307C119.478 32.6932 119.143 32.7898 118.864 32.9205C118.592 33.0511 118.381 33.2216 118.234 33.4318C118.092 33.6364 118.021 33.8807 118.021 34.1648C118.021 34.5966 118.174 34.9261 118.481 35.1534C118.793 35.3807 119.188 35.4943 119.665 35.4943ZM128.751 38V20.5455H132.918V27.1506H133.004C133.174 26.7528 133.415 26.3693 133.728 26C134.046 25.6307 134.45 25.3295 134.938 25.0966C135.433 24.858 136.023 24.7386 136.711 24.7386C137.62 24.7386 138.469 24.9773 139.259 25.4545C140.055 25.9318 140.697 26.6676 141.185 27.6619C141.674 28.6562 141.918 29.9233 141.918 31.4631C141.918 32.946 141.683 34.1875 141.211 35.1875C140.745 36.1875 140.114 36.9375 139.319 37.4375C138.529 37.9375 137.651 38.1875 136.685 38.1875C136.026 38.1875 135.455 38.0795 134.972 37.8636C134.489 37.6477 134.083 37.3636 133.754 37.0114C133.43 36.6591 133.18 36.2812 133.004 35.8778H132.876V38H128.751ZM132.833 31.4545C132.833 32.1591 132.927 32.7727 133.114 33.2955C133.308 33.8182 133.583 34.2244 133.941 34.5142C134.305 34.7983 134.739 34.9403 135.245 34.9403C135.756 34.9403 136.191 34.7983 136.549 34.5142C136.907 34.2244 137.177 33.8182 137.359 33.2955C137.546 32.7727 137.64 32.1591 137.64 31.4545C137.64 30.75 137.546 30.1392 137.359 29.6222C137.177 29.1051 136.907 28.7045 136.549 28.4205C136.197 28.1364 135.762 27.9943 135.245 27.9943C134.734 27.9943 134.299 28.1335 133.941 28.4119C133.583 28.6903 133.308 29.0881 133.114 29.6051C132.927 30.1222 132.833 30.7386 132.833 31.4545ZM155.531 28.9062L151.705 29.0085C151.665 28.7358 151.557 28.4943 151.381 28.2841C151.205 28.0682 150.974 27.9006 150.69 27.7812C150.412 27.6562 150.088 27.5938 149.719 27.5938C149.236 27.5938 148.824 27.6903 148.483 27.8835C148.148 28.0767 147.983 28.3381 147.989 28.6676C147.983 28.9233 148.085 29.1449 148.295 29.3324C148.511 29.5199 148.895 29.6705 149.446 29.7841L151.969 30.2614C153.276 30.5114 154.247 30.9261 154.884 31.5057C155.526 32.0852 155.849 32.8523 155.855 33.8068C155.849 34.7045 155.582 35.4858 155.054 36.1506C154.531 36.8153 153.815 37.3324 152.906 37.7017C151.997 38.0653 150.957 38.2472 149.787 38.2472C147.918 38.2472 146.443 37.8636 145.364 37.0966C144.29 36.3239 143.676 35.2898 143.523 33.9943L147.639 33.892C147.73 34.3693 147.966 34.733 148.347 34.983C148.727 35.233 149.213 35.358 149.804 35.358C150.338 35.358 150.773 35.2585 151.108 35.0597C151.443 34.8608 151.614 34.5966 151.619 34.267C151.614 33.9716 151.483 33.7358 151.227 33.5597C150.972 33.3778 150.571 33.2358 150.026 33.1335L147.741 32.6989C146.429 32.4602 145.452 32.0199 144.81 31.3778C144.168 30.7301 143.849 29.9062 143.855 28.9062C143.849 28.0312 144.082 27.2841 144.554 26.6648C145.026 26.0398 145.696 25.5625 146.565 25.233C147.435 24.9034 148.46 24.7386 149.642 24.7386C151.415 24.7386 152.813 25.1108 153.835 25.8551C154.858 26.5937 155.423 27.6108 155.531 28.9062Z" fill="#F8B107"/>
<path d="M3.73406 15.1122L10.0217 13.2848C14.2135 12.0665 17.0949 11.4045 18.6659 11.2987C20.251 11.1889 21.7019 11.6673 23.0187 12.7338C24.3454 13.7821 25.4319 15.7621 26.2781 18.6739C27.0508 21.3324 27.2394 23.2149 26.8441 24.3214C26.4487 25.4278 25.307 26.3546 23.4189 27.1016C25.304 27.0267 26.6552 27.267 27.4727 27.8227C28.2901 28.3783 28.8591 28.9452 29.1796 29.5232C29.5101 30.0831 30.0761 31.7416 30.8773 34.4986L33.4958 43.5081L25.2459 45.9058L21.9467 34.5542C21.4152 32.7256 20.9385 31.6362 20.5163 31.286C20.1083 30.9317 19.2923 30.9324 18.0686 31.288L22.5451 46.6907L13.6622 49.2724L3.73406 15.1122ZM14.3156 18.3751L16.5232 25.9709C17.522 25.6807 18.1794 25.3447 18.4956 24.9629C18.8217 24.5631 18.7661 23.6106 18.3287 22.1055L17.7829 20.2276C17.4681 19.1445 17.0647 18.4914 16.5728 18.2682C16.0949 18.041 15.3425 18.0766 14.3156 18.3751Z" fill="#F8B107"/>
</svg>
